<svg xmlns="http://www.w3.org/2000/svg" xmlns:xlink="http://www.w3.org/1999/xlink" zoomAndPan="magnify" preserveAspectRatio="xMidYMid meet" version="1.0" viewBox="103.4 1283.36 2751.35 357.1">
    <defs>
        <g/>
    </defs>
    <g fill="#FFFFFF" fill-opacity="1">
        <g transform="translate(552.668428, 1640.394668)">
            <g>
                <path d="M 7.117188 -322.53125 L 146.207031 -322.53125 L 146.207031 0 L 182.894531 0 L 182.894531 -322.53125 L 321.984375 -322.53125 L 321.984375 -352.648438 L 7.117188 -352.648438 Z M 7.117188 -322.53125 "/>
            </g>
        </g>
        <g transform="translate(881.22392, 1640.394668)">
            <g>
                <path d="M 356.484375 -2.738281 L 167.015625 -156.0625 L 215.203125 -156.0625 C 307.199219 -156.0625 354.292969 -188.917969 354.292969 -252.441406 C 354.292969 -318.699219 307.199219 -352.648438 215.75 -352.648438 L 57.496094 -352.648438 L 57.496094 0 L 94.1875 0 L 94.1875 -156.0625 L 117.183594 -156.0625 L 310.484375 0 L 360.316406 0 C 359.21875 -0.546875 357.578125 -2.738281 356.484375 -2.738281 Z M 94.1875 -185.085938 L 94.1875 -323.628906 L 214.109375 -323.628906 C 282.011719 -323.628906 317.054688 -299.53125 317.054688 -252.441406 C 317.054688 -208.085938 283.105469 -185.085938 216.847656 -185.085938 Z M 94.1875 -185.085938 "/>
            </g>
        </g>
        <g transform="translate(1255.77718, 1640.394668)">
            <g>
                <path d="M 15.332031 0 L 55.308594 0 L 104.042969 -102.949219 L 303.914062 -102.949219 L 352.648438 0 L 392.625 0 C 392.078125 0 391.527344 -2.738281 390.980469 -2.738281 L 225.058594 -352.648438 L 184.539062 -352.648438 L 16.429688 -2.738281 C 15.878906 -2.738281 15.332031 0.546875 15.332031 0 Z M 203.703125 -314.316406 L 290.773438 -130.328125 L 117.183594 -130.328125 Z M 203.703125 -314.316406 "/>
            </g>
        </g>
        <g transform="translate(1654.972103, 1640.394668)">
            <g>
                <path d="M 48.734375 0 L 85.972656 0 L 85.972656 -352.648438 L 48.734375 -352.648438 Z M 48.734375 0 "/>
            </g>
        </g>
        <g transform="translate(1788.584669, 1640.394668)">
            <g>
                <path d="M 330.199219 -352.648438 L 292.960938 -352.648438 L 292.960938 -41.617188 L 98.566406 -352.648438 L 57.496094 -352.648438 L 57.496094 0 L 94.1875 0 L 94.1875 -293.507812 L 278.175781 0 L 330.199219 0 Z M 330.199219 -352.648438 "/>
            </g>
        </g>
        <g transform="translate(2166.423484, 1640.394668)">
            <g>
                <path d="M 57.496094 0 L 299.53125 0 L 299.53125 -30.117188 L 94.1875 -30.117188 L 94.1875 -167.5625 L 280.367188 -167.5625 L 280.367188 -196.585938 L 94.1875 -196.585938 L 94.1875 -322.53125 L 291.320312 -322.53125 L 291.320312 -352.648438 L 57.496094 -352.648438 Z M 57.496094 0 "/>
            </g>
        </g>
        <g transform="translate(2494.431383, 1640.394668)">
            <g>
                <path d="M 356.484375 -2.738281 L 167.015625 -156.0625 L 215.203125 -156.0625 C 307.199219 -156.0625 354.292969 -188.917969 354.292969 -252.441406 C 354.292969 -318.699219 307.199219 -352.648438 215.75 -352.648438 L 57.496094 -352.648438 L 57.496094 0 L 94.1875 0 L 94.1875 -156.0625 L 117.183594 -156.0625 L 310.484375 0 L 360.316406 0 C 359.21875 -0.546875 357.578125 -2.738281 356.484375 -2.738281 Z M 94.1875 -185.085938 L 94.1875 -323.628906 L 214.109375 -323.628906 C 282.011719 -323.628906 317.054688 -299.53125 317.054688 -252.441406 C 317.054688 -208.085938 283.105469 -185.085938 216.847656 -185.085938 Z M 94.1875 -185.085938 "/>
            </g>
        </g>
    </g>
    <g fill="#FFFFFF" fill-opacity="1">
        <g transform="translate(161.631298, 1508.223873)">
            <g>
                <path d="M 36.664062 0 L 59.707031 0 L 59.707031 -202.867188 L 141.066406 0 L 162.363281 0 L 243.722656 -205.3125 L 243.722656 0 L 266.417969 0 L 266.417969 -224.867188 L 229.40625 -224.867188 L 151.539062 -26.535156 L 72.976562 -224.867188 L 36.664062 -224.867188 Z M 36.664062 0 "/>
            </g>
        </g>
    </g>
    <path stroke-linecap="butt" transform="matrix(0.749438, 0, 0, 0.75, 114.399639, 1577.909788)" fill="none" stroke-linejoin="miter" d="M -0.00160282 11.000491 L 521.394267 11.000491 " stroke="#FFFFFF" stroke-width="22" stroke-opacity="1" stroke-miterlimit="4"/>
</svg>